HIERARCHY
ROOT hip
{
	OFFSET 0.000000 0.000000 0.000000 
	CHANNELS 6 Xposition Yposition Zposition Xrotation Zrotation Yrotation
	JOINT abdomen
	{
		OFFSET 0.000000 3.402643 0.000000 
		CHANNELS 3 Xrotation Zrotation Yrotation
		JOINT chest
		{
			OFFSET 0.000000 8.438565 -0.680529 
			CHANNELS 3 Xrotation Zrotation Yrotation
			JOINT neck
			{
				OFFSET 0.000000 10.207942 -0.272212 
				CHANNELS 3 Xrotation Zrotation Yrotation
				JOINT head
				{
					OFFSET 0.000000 3.130431 0.000000 
					CHANNELS 3 Xrotation Zrotation Yrotation
					End Site
					{
						OFFSET 0.000000 3.130435 0.000000 
					}
				}
			}
			JOINT lCollar
			{
				OFFSET 3.470700 6.669187 -0.816635 
				CHANNELS 3 Yrotation Zrotation Xrotation
				JOINT lShldr
				{
					OFFSET 3.198488 0.000000 0.000000 
					CHANNELS 3 Zrotation Yrotation Xrotation
					JOINT lForeArm
					{
						OFFSET 10.139888 0.000000 0.000000 
						CHANNELS 3 Yrotation Zrotation Xrotation
						JOINT lHand
						{
							OFFSET 8.370511 0.000000 0.000000 
							CHANNELS 3 Zrotation Yrotation Xrotation
							End Site
							{
								OFFSET 4.083176 0.000000 0.000000 
							}
						}
					}
				}
			}
			JOINT rCollar
			{
				OFFSET -3.470700 6.669187 -0.816635 
				CHANNELS 3 Yrotation Zrotation Xrotation
				JOINT rShldr
				{
					OFFSET -3.198488 0.000000 0.000000 
					CHANNELS 3 Zrotation Yrotation Xrotation
					JOINT rForeArm
					{
						OFFSET -10.139888 0.000000 0.000000 
						CHANNELS 3 Yrotation Zrotation Xrotation
						JOINT rHand
						{
							OFFSET -8.370511 0.000000 0.000000 
							CHANNELS 3 Zrotation Yrotation Xrotation
							End Site
							{
								OFFSET -4.083176 0.000000 0.000000 
							}
						}
					}
				}
			}
		}
	}
	JOINT lThigh
	{
		OFFSET 5.308129 -1.633274 1.361059 
		CHANNELS 3 Xrotation Zrotation Yrotation
		JOINT lShin
		{
			OFFSET -2.041588 -20.007561 0.000000 
			CHANNELS 3 Xrotation Zrotation Yrotation
			JOINT lFoot
			{
				OFFSET 0.000000 -19.190928 -1.224953 
				CHANNELS 3 Xrotation Yrotation Zrotation
				End Site
				{
					OFFSET 0.000000 -2.449906 4.627600 
				}
			}
		}
	}
	JOINT rThigh
	{
		OFFSET -5.308129 -1.633274 1.361059 
		CHANNELS 3 Xrotation Zrotation Yrotation
		JOINT rShin
		{
			OFFSET 2.041588 -20.007561 0.000000 
			CHANNELS 3 Xrotation Zrotation Yrotation
			JOINT rFoot
			{
				OFFSET 0.000000 -19.190928 -1.224953 
				CHANNELS 3 Xrotation Yrotation Zrotation
				End Site
				{
					OFFSET 0.000000 -2.449906 4.627600 
				}
			}
		}
	}
}
MOTION
Frames: 20
Frame Time: 0.033333
15.305603 52.758541 121.434593 11.796875 -5.175781 27.031252 32.924507 -18.604441 1.085536 -16.005859 12.197267 6.875001 51.063168 8.107644 2.471410 -24.648438 2.011719 -15.546532 2.000000 -2.000000 0.000000 -78.847656 9.726563 5.060245 -100.122032 0.106743 -3.259223 29.575129 40.296459 10.731126 -2.000000 2.000000 0.000000 77.597656 -6.669922 -15.019533 111.810692 -1.549302 -3.010203 -57.078949 -61.744499 56.309017 -17.623007 7.752001 4.321158 7.307970 -5.242198 -0.858940 3.456300 0.030781 -3.541523 -7.100244 -10.822898 -37.095646 8.590563 5.119936 0.900814 -0.569280 -5.094903 8.783762 
15.304445 52.774288 121.570007 11.621095 -5.175782 27.372166 32.659039 -18.599091 0.705941 -16.005859 12.197267 6.699219 51.063168 8.107644 2.471410 -24.150394 1.806641 -14.912111 2.000000 -2.000000 0.000000 -78.857422 6.396484 5.312500 -100.659424 -0.049810 -3.259946 27.531746 41.644917 8.144457 -2.000000 2.000000 0.000000 77.939453 -6.562500 -14.091797 112.358612 -1.401371 -3.030982 -59.826973 -61.114155 58.759571 -17.426695 7.927074 4.305252 6.959758 -5.205302 -0.818139 3.473508 -0.003092 -3.367167 -6.768071 -10.719297 -36.778217 8.229629 5.149937 0.414479 -0.539960 -5.553778 9.174439 
15.310114 52.750656 121.704231 11.621095 -5.175782 27.372166 32.336170 -18.538574 0.572191 -16.005859 12.197267 6.523438 51.063168 8.107644 2.471410 -23.652348 1.591797 -14.267578 2.000000 -2.000000 0.000000 -79.208984 3.134766 5.712890 -100.659424 -0.049810 -3.259946 25.315588 42.904743 5.363875 -2.000000 2.000000 0.000000 78.447266 -6.845703 -13.164063 112.689285 -1.579114 -3.002148 -61.894211 -60.194443 60.652912 -17.050858 8.105737 4.299196 6.970700 -5.224034 -0.800250 3.484027 0.077688 -3.525053 -6.406758 -10.290821 -36.971783 8.050112 5.129702 0.671693 -0.538164 -5.348457 9.273934 
15.316714 52.782169 121.860435 11.455078 -5.175781 27.401464 31.854919 -18.405031 0.302045 -15.996095 12.373047 6.562500 51.063168 8.107644 2.471410 -23.320314 1.406250 -13.642580 2.000000 -2.000000 0.000000 -80.283203 -0.517578 5.820312 -100.483643 -0.049810 -3.259946 22.300652 44.482811 3.101922 -2.000000 2.000000 0.000000 78.945313 -6.933594 -12.247272 113.061417 -1.431183 -3.022928 -64.283493 -60.050858 62.642410 -16.694265 8.083214 4.497347 6.963137 -5.200754 -0.818803 3.512453 0.053779 -3.367795 -6.065053 -10.172272 -37.032711 8.054677 5.120856 0.710184 -0.381565 -5.184294 9.181923 
15.328516 52.790047 121.994659 11.289063 -5.175781 27.255859 31.587490 -18.396231 -0.086708 -15.996095 12.373047 6.386719 51.063168 8.107644 2.471410 -22.802734 1.181641 -12.988283 2.000000 -2.000000 0.000000 -82.060547 -4.140625 6.250000 -99.760750 0.457947 -2.937384 17.878187 46.130714 -0.225965 -2.000000 2.000000 0.000000 79.218750 -7.001954 -11.093749 113.216309 -1.608926 -2.994094 -65.534706 -59.462307 63.779160 -16.302221 8.267670 4.317301 6.955934 -5.210451 -0.818383 3.507741 0.148573 -3.510737 -5.761977 -10.301163 -36.511990 7.863055 5.136736 0.520236 -0.374374 -5.203784 9.164346 
15.341361 52.790047 122.126595 11.093750 -5.175781 27.264742 31.289291 -18.246742 -0.374806 -15.996095 12.373047 6.210938 51.063168 8.107644 2.471410 -22.470705 0.996094 -12.353516 2.000000 -2.000000 0.000000 -83.955078 -7.832031 6.181641 -98.881592 0.419515 -2.925376 13.689460 47.557549 -3.264225 -2.000000 2.000000 0.000000 79.365234 -7.226563 -10.410156 113.216324 -1.599177 -2.993530 -65.990356 -59.320816 64.162109 -16.103094 8.476439 4.332153 6.959452 -5.205082 -0.837624 3.484745 0.111566 -3.523706 -5.372321 -10.207950 -36.926781 7.697311 5.126855 0.827575 -0.377196 -4.980676 8.882989 
15.364385 52.797928 122.243454 10.917969 -5.019531 27.128906 30.965462 -18.189655 -0.496352 -15.986329 12.539063 6.083984 51.063168 8.107644 2.471410 -21.953127 0.791016 -11.728518 2.000000 -2.000000 0.000000 -85.205078 -10.410157 6.367188 -97.826645 0.371333 -2.912803 10.024141 48.929783 -5.920099 -2.000000 2.000000 0.000000 79.775391 -7.695313 -9.229822 112.872459 -1.525697 -2.911056 -66.552177 -59.126419 64.993233 -15.927375 8.486233 4.156476 6.953364 -5.229959 -0.828977 3.279075 0.721990 -3.562317 -5.039428 -10.077304 -36.790436 7.697665 5.126694 0.817820 -0.228297 -5.219642 9.150126 
15.378042 52.821560 122.366119 10.751953 -5.019531 27.137815 30.502068 -18.203651 -0.851946 -15.986329 12.539063 6.083984 51.063168 8.107644 2.471410 -21.621096 0.605469 -11.298830 2.000000 -2.000000 0.000000 -85.976563 -12.236329 6.523438 -96.595924 0.323151 -2.900229 6.834957 49.948322 -7.789605 -2.000000 2.000000 0.000000 79.863281 -7.978515 -8.390026 112.689285 -1.579114 -3.002148 -66.880516 -59.184219 65.285110 -15.540658 8.648422 4.331383 6.969243 -5.224727 -0.839276 3.320402 0.382330 -3.752010 -4.854962 -10.042444 -36.786938 7.882767 5.148210 0.824541 -0.038131 -5.156729 8.988947 
15.389845 52.845200 122.484161 10.576172 -4.843750 27.031252 30.210928 -18.045101 -1.133578 -15.976563 12.714844 5.949415 51.063168 8.107644 2.471410 -21.298830 0.419922 -10.673829 2.000000 -2.000000 0.000000 -86.601563 -13.750000 6.901978 -95.365196 0.274969 -2.887656 3.463866 51.153252 -10.236041 -2.000000 2.000000 0.000000 80.263672 -8.300781 -7.421875 112.337730 -1.569365 -3.001585 -67.611481 -59.264835 66.424973 -15.129867 8.784430 4.490766 6.966351 -5.212847 -0.819297 3.469819 0.314547 -3.804974 -4.513544 -9.885169 -36.795132 7.876351 5.140500 0.813575 -0.226926 -4.995395 8.669815 
15.404308 52.837318 122.617233 10.400392 -4.863282 26.844875 29.906103 -18.132124 -1.349716 -15.976563 12.714844 5.773633 51.063168 8.107644 2.471410 -20.937500 0.371094 -10.146184 2.000000 -2.000000 0.000000 -87.216797 -15.205078 7.136110 -93.958694 0.217038 -2.874517 0.241415 52.038620 -12.738114 -2.000000 2.000000 0.000000 80.361328 -8.417969 -6.563930 111.831589 -1.371559 -3.039036 -67.607269 -59.284245 66.455635 -14.747968 8.773738 4.718995 6.960308 -5.203930 -0.837569 3.274555 0.385005 -3.937466 -4.336129 -9.863323 -36.664776 7.879514 5.134830 0.832757 -0.175525 -5.044468 9.039932 
15.411135 52.853069 122.735268 10.214844 -4.863281 26.874506 29.605253 -17.979250 -1.643904 -15.976563 12.714844 5.773633 51.063168 8.107644 2.471410 -20.419924 0.166016 -9.687501 2.000000 -2.000000 0.000000 -87.851563 -16.396484 7.350760 -92.376122 0.159672 -2.851632 -2.882765 52.984024 -14.649689 -2.000000 2.000000 0.000000 80.791016 -8.750000 -5.791016 111.459427 -1.538989 -3.019384 -67.697861 -59.259903 67.029526 -14.375166 8.945517 4.535210 6.789341 -5.220009 -0.804914 3.170179 0.650358 -4.001269 -4.005051 -9.732370 -36.515690 7.873060 5.126779 0.832392 0.182607 -4.782439 9.007020 
15.421898 52.860950 122.857910 10.039063 -4.677734 26.748045 29.259960 -17.923384 -1.737648 -15.966797 12.880860 5.646708 51.063168 8.107644 2.471410 -20.068359 0.136726 -9.335414 2.000000 -2.000000 0.000000 -88.144531 -17.607424 7.402344 -90.969612 0.101742 -2.838493 -5.904947 53.695477 -16.693853 -2.000000 2.000000 0.000000 81.220703 -8.964845 -4.853516 111.122795 -1.519336 -2.852277 -67.695763 -59.269615 67.019753 -14.002293 8.934389 4.726261 6.782210 -5.213522 -0.794066 3.257746 0.481316 -4.110868 -3.818593 -9.715968 -36.336342 7.877025 5.139067 0.823243 -0.170960 -4.883398 8.765724 
15.433586 52.868828 122.966682 9.873047 -4.677734 26.571468 29.163149 -17.914639 -2.123401 -15.966797 12.880860 5.646708 51.063168 8.107644 2.471410 -19.736330 0.107422 -8.818360 2.000000 -2.000000 0.000000 -88.779297 -18.242188 7.607422 -89.738869 0.053560 -2.825920 -8.788395 54.445004 -18.440355 -2.000000 2.000000 0.000000 81.308594 -8.876952 -3.994141 110.756905 -1.498864 -3.036620 -68.112183 -59.273590 67.496582 -13.767604 9.148938 4.726196 6.783883 -5.244138 -0.775816 3.162020 0.820167 -4.118016 -3.447387 -9.599561 -36.540951 7.873067 5.126770 0.832392 0.199675 -4.692971 8.706496 
15.443886 52.868828 123.065071 9.853516 -4.521484 26.435545 28.828035 -17.857586 -2.244993 -15.937500 13.056640 5.507813 51.063168 8.107644 2.471410 -19.365234 0.068359 -8.457023 2.000000 -2.000000 0.000000 -89.013672 -19.326170 7.623722 -88.507858 0.005944 -2.803601 -11.963561 54.993134 -20.766933 -2.000000 2.000000 0.000000 82.050781 -8.925781 -3.497609 110.777496 -1.331434 -3.056273 -68.233368 -59.064320 67.586548 -13.393653 9.127091 4.926615 6.953465 -5.230137 -0.819237 2.703038 0.741062 -4.324781 -3.293496 -9.513534 -36.366028 8.050103 5.129715 0.671694 0.504941 -4.467154 8.825513 
15.438793 52.876709 123.178467 9.687501 -4.521484 26.278524 28.554373 -17.852301 -2.621622 -15.937500 13.056640 5.332032 51.063168 8.107644 2.471410 -19.023438 0.029297 -8.291018 2.000000 -2.000000 0.000000 -89.443359 -19.882814 6.894531 -87.290680 -0.215882 -2.917849 -15.567396 55.423439 -22.571590 -2.000000 2.000000 0.000000 83.066406 -8.496094 -2.910156 110.932404 -1.509177 -3.027438 -68.268700 -58.899303 67.435875 -12.997608 9.296493 4.943024 6.605820 -5.201600 -0.778917 2.961008 0.900271 -4.267228 -3.107572 -9.465705 -36.429237 8.054301 5.120645 0.729666 0.666433 -4.475732 8.845164 
15.426642 52.884583 123.245583 9.511719 -4.521484 26.102745 28.402876 -17.779335 -2.761076 -15.761719 13.046876 5.373298 51.063168 8.107644 2.471410 -19.023438 0.185547 -8.193360 2.000000 -2.000000 0.000000 -89.638672 -20.478518 6.061037 -86.235161 -0.262935 -2.885784 -18.147192 55.845669 -23.400509 -2.000000 2.000000 0.000000 83.486328 -8.017578 -3.028706 110.601730 -1.321685 -3.055709 -69.014267 -58.922115 67.997307 -12.611616 9.262768 5.144200 6.968136 -5.204427 -1.004110 2.379132 0.867715 -4.240891 -2.959762 -9.373166 -36.243816 8.054656 5.120893 0.710186 0.209375 -4.571220 8.574649 
15.415765 52.884583 123.240952 9.335938 -4.365234 26.142580 28.402876 -17.779335 -2.761076 -15.390626 13.183594 5.673829 51.063168 8.107644 2.471410 -19.160158 0.507813 -8.183581 2.000000 -2.000000 0.000000 -88.994141 -20.624998 6.699219 -86.935051 -0.051421 -2.780716 -16.326963 56.043503 -21.227568 -2.000000 2.000000 0.000000 83.251953 -7.861328 -3.116570 109.878334 -1.459303 -3.044111 -70.443260 -59.003975 69.602875 -12.406656 9.428697 4.992677 6.784150 -5.193613 -0.832225 2.793545 1.201971 -4.669549 -2.784883 -9.380569 -35.691952 8.049948 5.168811 0.176736 0.339795 -4.582376 8.780685 
15.385912 52.900341 123.213173 9.140625 -4.365234 25.995352 28.586922 -17.763405 -2.775941 -15.214844 13.173827 5.712890 51.063168 8.107644 2.471410 -19.648441 0.849612 -8.554708 2.000000 -2.000000 0.000000 -88.027344 -20.996094 8.697675 -89.228630 -0.322401 -3.068173 -8.665811 56.485062 -15.288335 -2.000000 2.000000 0.000000 82.802734 -7.734375 -3.339844 108.823975 -1.419742 -3.051601 -73.147690 -59.258728 71.851486 -12.226117 9.442988 4.966048 6.785280 -5.225625 -0.794542 2.791816 1.014666 -4.331512 -2.599621 -9.340041 -35.735390 8.054339 5.160334 0.215241 0.643988 -4.254614 8.602941 
15.364271 52.876709 123.176147 8.964844 -4.169922 25.869143 28.554373 -17.852301 -2.621622 -14.833984 13.310548 6.017874 51.063168 8.107644 2.471410 -19.960939 1.337891 -8.828127 2.000000 -2.000000 0.000000 -86.650391 -21.123049 12.047262 -92.376122 0.159672 -2.851632 0.828290 55.905540 -8.335843 -2.000000 2.000000 0.000000 82.197266 -7.734375 -3.671875 107.779106 -1.380744 -3.049346 -76.022591 -59.151680 74.628227 -12.226105 9.443002 4.966046 6.785277 -5.225627 -0.794542 2.863560 1.391244 -4.540769 -2.599632 -9.340041 -35.735394 8.054325 5.160357 0.215243 0.488542 -4.199862 8.403391 
15.335572 52.876709 123.153008 8.789063 -4.169922 25.702415 28.554373 -17.852301 -2.621622 -14.833984 13.310548 6.017874 51.063168 8.107644 2.471410 -20.078127 1.806641 -9.248048 2.000000 -2.000000 0.000000 -85.068359 -21.289064 15.478517 -95.717026 0.284154 -2.897967 11.373759 54.736359 -0.670271 -2.000000 2.000000 0.000000 81.728516 -7.919922 -3.876953 106.725037 -1.330871 -3.066018 -78.086098 -59.322433 76.450386 -12.024585 9.427487 4.987910 6.956529 -5.193229 -0.817648 2.990250 1.505134 -4.914426 -2.434350 -9.396567 -36.479324 8.230407 5.110840 0.860640 0.445804 -3.846576 8.158536 
